<svg xmlns="http://www.w3.org/2000/svg" viewBox="0 0 1200 630" width="1200" height="630">
  <defs>
    <linearGradient id="bg" x1="0%" y1="0%" x2="100%" y2="100%">
      <stop offset="0%" stop-color="#0891b2"/>
      <stop offset="100%" stop-color="#155e75"/>
    </linearGradient>
    <radialGradient id="lens" cx="0.35" cy="0.35" r="0.75">
      <stop offset="0%" stop-color="#fde68a" stop-opacity="0.9"/>
      <stop offset="60%" stop-color="#f59e0b" stop-opacity="0.3"/>
      <stop offset="100%" stop-color="#f59e0b" stop-opacity="0"/>
    </radialGradient>
    <linearGradient id="bottle" x1="0%" y1="0%" x2="0%" y2="100%">
      <stop offset="0%" stop-color="#fefce8" stop-opacity="0.95"/>
      <stop offset="100%" stop-color="#fefce8" stop-opacity="0.85"/>
    </linearGradient>
  </defs>

  <rect width="1200" height="630" fill="url(#bg)"/>

  <g opacity="0.12">
    <path d="M 0 200 L 1200 200" stroke="#fefce8" stroke-width="1"/>
    <path d="M 0 400 L 1200 400" stroke="#fefce8" stroke-width="1"/>
    <path d="M 400 0 L 400 630" stroke="#fefce8" stroke-width="1"/>
    <path d="M 800 0 L 800 630" stroke="#fefce8" stroke-width="1"/>
  </g>

  <g transform="translate(880 120)">
    <path d="M 60 20 q 20 -8 40 0 q 10 8 0 16 l -40 0 q -10 -8 0 -16 z" fill="url(#bottle)"/>
    <rect x="48" y="36" width="64" height="12" rx="4" fill="url(#bottle)"/>
    <rect x="40" y="52" width="80" height="180" rx="14" fill="url(#bottle)"/>
    <g stroke="#0891b2" stroke-linecap="round" stroke-width="3">
      <line x1="56" y1="86" x2="108" y2="86" opacity="0.85"/>
      <line x1="56" y1="110" x2="96" y2="110" opacity="0.6"/>
      <line x1="56" y1="134" x2="104" y2="134" opacity="0.75"/>
      <line x1="56" y1="158" x2="88" y2="158" opacity="0.5"/>
      <line x1="56" y1="182" x2="100" y2="182" opacity="0.7"/>
    </g>
  </g>

  <g transform="translate(1020 280)">
    <circle r="68" fill="url(#lens)" stroke="#f59e0b" stroke-width="6"/>
    <line x1="48" y1="48" x2="88" y2="88" stroke="#f59e0b" stroke-width="10" stroke-linecap="round"/>
  </g>

  <text x="80" y="120" font-family="system-ui,-apple-system,sans-serif" font-size="22" font-weight="800" fill="#bae6fd" letter-spacing="3" text-transform="uppercase">
    INDEPENDENT BABY FOOD RATING
  </text>

  <text x="80" y="240" font-family="system-ui,-apple-system,sans-serif" font-size="88" font-weight="900" fill="#ffffff" letter-spacing="-3">
    BébéDécrypte
  </text>

  <text x="80" y="320" font-family="system-ui,-apple-system,sans-serif" font-size="34" font-weight="600" fill="#e0f2fe">
    On décrypte ce qu'il y a vraiment
  </text>
  <text x="80" y="366" font-family="system-ui,-apple-system,sans-serif" font-size="34" font-weight="600" fill="#e0f2fe">
    dans le pot de ton bébé.
  </text>

  <g transform="translate(80 440)">
    <rect width="120" height="56" rx="14" fill="#0891b2"/>
    <text x="60" y="38" font-family="system-ui,sans-serif" font-size="38" font-weight="900" fill="#ffffff" text-anchor="middle">A</text>
    <rect x="130" width="120" height="56" rx="14" fill="#84cc16"/>
    <text x="190" y="38" font-family="system-ui,sans-serif" font-size="38" font-weight="900" fill="#ffffff" text-anchor="middle">B</text>
    <rect x="260" width="120" height="56" rx="14" fill="#eab308"/>
    <text x="320" y="38" font-family="system-ui,sans-serif" font-size="38" font-weight="900" fill="#ffffff" text-anchor="middle">C</text>
    <rect x="390" width="120" height="56" rx="14" fill="#f97316"/>
    <text x="450" y="38" font-family="system-ui,sans-serif" font-size="38" font-weight="900" fill="#ffffff" text-anchor="middle">D</text>
    <rect x="520" width="120" height="56" rx="14" fill="#dc2626"/>
    <text x="580" y="38" font-family="system-ui,sans-serif" font-size="38" font-weight="900" fill="#ffffff" text-anchor="middle">E</text>
  </g>

  <text x="80" y="560" font-family="system-ui,sans-serif" font-size="20" font-weight="500" fill="#bae6fd">
    Sources: ANSES · EFSA · ESPGHAN · Open Food Facts · RappelConso
  </text>
</svg>
